<svg xmlns="http://www.w3.org/2000/svg" width="50.5" height="50.5" viewBox="0 0 50.5 50.5">
  <title>maps</title>
  <g id="0b34b73e-1ac0-4e9c-88a3-81df05288f36" data-name="maps">
    <g>
      <path d="M41.43,25.78c2.28,0,4.55,0,6.83,0,.59,0,.82.12.81.77q0,5.77,0,11.54c0,.63-.2.8-.81.8q-6.95,0-13.9,0c-.61,0-.81-.17-.81-.8q0-5.77,0-11.54c0-.65.22-.78.81-.77C36.72,25.8,39.08,25.78,41.43,25.78Z"/>
      <path d="M17.55,12.15H33c0,4,0,8.09,0,12.13,0,.3.21.8-.36.81-.42,0-.86.19-1.21-.39-1.16-1.92-2.78-1.9-3.95,0a.7.7,0,0,1-.74.37c-2.83,0-5.65,0-8.48,0-.69,0-.74-.3-.74-.85C17.54,20.24,17.54,16.19,17.55,12.15Z"/>
      <path d="M33.59,12.15H49c0,4,0,8.09,0,12.13,0,.69-.21.85-.87.85q-6.89,0-13.78,0c-.66,0-.87-.16-.87-.85C33.59,20.24,33.59,16.19,33.59,12.15Z"/>
      <path d="M1.45,25.07V12.13l15.3,0c0,4.12,0,8.24.06,12.35,0,.52-.16.67-.67.66C11.26,25.09,6.36,25.08,1.45,25.07Z"/>
      <path d="M1.43,38.77l0-13c4.86,0,9.72,0,14.58,0,.62,0,.78.17.78.78,0,4.07,0,8.15,0,12.22a18.24,18.24,0,0,1-3.27.09c-3.64,0-7.28,0-10.92,0a2.66,2.66,0,0,1-1.16-.09Z"/>
      <path d="M25.19,38.87c-2.24,0-4.48,0-6.71,0-.66,0-1-.09-1-.88,0-3.81,0-7.62,0-11.42,0-.6.13-.82.77-.81q4.18.05,8.36,0c.53,0,.7.21.93.62a2.06,2.06,0,0,0,3.75,0c.35-.71.82-.63,1.33-.58s.34.61.35.94c0,3.69,0,7.38,0,11.07,0,.93-.29,1.11-1.13,1.08C29.67,38.84,27.43,38.87,25.19,38.87Z"/>
      <path d="M30.58,25.47a1.08,1.08,0,0,1-1.16,1.05,1,1,0,0,1-1.06-1,1,1,0,0,1,1.08-1.13C30.15,24.34,30.48,24.79,30.58,25.47Z" fill="#050505"/>
      <path d="M1.43,38.78H16.79c-.19.37-.54.25-.83.25H2.26C2,39,1.62,39.15,1.43,38.78Z" fill="#bfbfbf"/>
      <path d="M41.31,22a1.61,1.61,0,0,1-1.64,1.62,1.65,1.65,0,1,1,.06-3.3A1.63,1.63,0,0,1,41.31,22Z" fill="#f9f9f9"/>
      <path d="M7.46,20.36a1.52,1.52,0,0,1-1.58-1.64,1.63,1.63,0,0,1,1.6-1.66,1.71,1.71,0,0,1,1.69,1.73A1.67,1.67,0,0,1,7.46,20.36Z" fill="#f9f9f9"/>
      <path d="M11.31,29.86a2,2,0,0,1,2.08-2.08,2.14,2.14,0,0,1,2.17,2.15A2.21,2.21,0,0,1,13.43,32,2.07,2.07,0,0,1,11.31,29.86Z" fill="#fbfbfb"/>
      <path d="M23.52,28.89a2.64,2.64,0,1,1-2.6,2.66A2.67,2.67,0,0,1,23.52,28.89Z" fill="#fbfbfb"/>
      <path d="M39.67,22.55c-.41,0-.61-.27-.58-.62a.57.57,0,0,1,.62-.56.56.56,0,0,1,.53.64A.52.52,0,0,1,39.67,22.55Z" fill="#151515"/>
      <path d="M7.48,18.13c.34.05.58.2.59.59a.55.55,0,0,1-.57.6.57.57,0,0,1-.61-.58C6.89,18.37,7.16,18.21,7.48,18.13Z" fill="#121212"/>
      <path d="M14.52,29.89A1.07,1.07,0,0,1,13.42,31a1.09,1.09,0,0,1-.08-2.17C14,28.77,14.41,29.19,14.52,29.89Z" fill="#060606"/>
      <path d="M25.15,31.54a1.57,1.57,0,0,1-1.57,1.55,1.58,1.58,0,1,1,1.57-1.55Z" fill="#020202"/>
    </g>
  </g>
</svg>
