<svg xmlns="http://www.w3.org/2000/svg" width="50.5" height="50.5" viewBox="0 0 50.5 50.5">
  <title>parish</title>
  <g id="436fa327-f9d9-428f-8615-213b0e5b45b8" data-name="parish">
    <path d="M25.14,9.59V8.24h2V9.59M5,40.36h9.76V17H5Zm32.56,0h7.85V24.89H37.58ZM28.52,38V29.59H23.79V38H18.38V23.17l4.73-4.56V15.22l2-2.26V11.62H23.79v-2h1.35V8.24h2V9.59h1.35v2H27.17l0,1.33,2,2.28v3.39l4.73,4.56V38m-4.56,0M26.18,22.25a1.52,1.52,0,0,0-1.52,1.52v3.8h3v-3.8A1.52,1.52,0,0,0,26.18,22.25Zm7.75,16.81H18.38v1.29H33.93Z"/>
  </g>
</svg>
