<svg xmlns="http://www.w3.org/2000/svg" width="50.5" height="50.5" viewBox="0 0 50.5 50.5">
  <title>plague</title>
  <g id="c1cdc357-0009-4b94-a247-785bb0369447" data-name="plague">
    <path d="M25.14,9.59V8.24h2V9.59M5,40.36h9.76V17H5Zm32.56,0h7.85V24.89H37.58ZM28.52,38V31.59H23.79V38H18.38V23.17l4.73-4.56V15.22l2-2.26V11.62H23.79v-2h1.35V8.24h2V9.59h1.35v2H27.17l0,1.33,2,2.28v3.39l4.73,4.56V38m-4.56,0,4.56,1.07H18.38v1.29H33.93Z"/>
    <path d="M27.54,28.32l0-1.89-.84.08h-2l0,1.75h.14l.57.06.07.46-.11.3H23l-.11-.43,0-.38h.58l0-3.72,0-.52h-.41l-.16-.11,0-.57,1-.11,1.4.07.06.43-.26.29-.46,0,0,1.63,2.53-.07h.38l.08-1.6-.52,0-.08-.37.06-.33,1-.11,1.26.13,0,.31-.14.43h-.52l-.16,4.21.59.06.06.2,0,.29-.12.23-1,.07L27,29.06l-.16-.46.14-.26Z" fill="#fff"/>
  </g>
</svg>
